<svg xmlns="http://www.w3.org/2000/svg" version="1.1" xmlnsXlink="http://www.w3.org/1999/xlink" xmlnsvgjs="http://svgjs.dev/svgjs" width="2000" height="1500" viewBox="0 0 2000 1500"><rect width="2000" height="1500" fill="#0c1d36"></rect><g transform="matrix(0.75,0,0,0.75,249.74228220172654,147.11446494268876)"><svg viewBox="0 0 307 247" data-background-color="#0c1d36" preserveAspectRatio="xMidYMid meet" height="1609" width="2000" xmlns="http://www.w3.org/2000/svg" xmlns:xlink="http://www.w3.org/1999/xlink"><g id="tight-bounds" transform="matrix(1,0,0,1,0.05274624271331163,-0.09997365579206985)"><svg viewBox="0 0 306.8945075145734 247.2" height="247.2" width="306.8945075145734"><g><svg viewBox="0 0 306.8945075145734 247.2" height="247.2" width="306.8945075145734"><g><svg viewBox="0 0 306.8945075145734 247.2" height="247.2" width="306.8945075145734"><g id="textblocktransform"><svg viewBox="0 0 306.8945075145734 247.2" height="247.2" width="306.8945075145734" id="textblock"><g><svg viewBox="0 0 306.8945075145734 247.2" height="247.2" width="306.8945075145734"><path d="M306.176 53.02C304.733 27.36 300.621 20.227 300.621 20.227 287.997-6.202 272.242-0.506 258.088 3.292 233.099 3.446 208.211 9.091 183.28 12.119 130.951 12.581 78.174 4.986 26.104 23.717 21.213 29.464-5.074 24.846 0.87 56.304 2.428 69.39 8.113 83.913 7.94 95.922 8.719 98.026 9.801 93.202 10.262 96.23 11.878 104.39 14.519 100.541 16.683 105.365 13.667 118.246 15.832 128.971 17.895 140.21 14.259 143.135 9.599 141.749 7.507 151.449 7.29 158.479 6.122 157.145 4.838 156.837 3.9 156.632 2.01 157.402 2.327 159.608 3.409 167.152-1.236 171.514 1.678 178.904-0.328 186.91 3.063 193.838 2.601 202.511 2.544 204.255 2.861 205.744 3.366 206.154 5.602 208.361 2.342 212.672 2.688 217.342 25.628 249.262 50.516 227.195 74.019 241.872 80.122 231.608 75.534 245.516 77.972 243.36 79.876 240.846 81.262 251.263 83.411 245.362 83.743 243.668 83.238 239.665 84.421 240.435 85.042 240.846 85.59 240.743 85.676 238.382 85.806 234.841 84.666 237.048 84.363 235.201 87.639 225.861 86.831 248.081 89.904 247.158 89.759 244.438 88.865 240.538 90.697 241.051 92.515 237.151 92.573 233.918 94.189 242.693 94.247 244.592 94.535 245.926 94.997 246.85 100.046 237.305 105.067 250.237 110.362 245.926 113.609 241.205 116.725 248.492 120.014 246.696 121.169 245.259 122.337 242.693 123.448 247.004 137.054 247.928 151.554 244.079 164.452 247.158 198.92 241.41 235.754 249.518 272.098 241.923 280.668 238.998 289.57 234.841 297.923 231.506 297.923 231.506 304.69 222.371 304.69 181.316S306.133 145.393 306.349 112.703C306.566 80.013 307.575 78.679 306.133 53.02Z" opacity="1" fill="#f9cc0b" data-fill-palette-color="tertiary"></path><g transform="matrix(1,0,0,1,55.76832,26.230666666666668)"><svg width="195.35786751457337" viewBox="0.699999988079071 -29.149999618530273 31.549999237060547 31.44999885559082" height="194.73866666666666" data-palette-color="#0c1d36"><path d="M32.25-26.4L32.25-26.4Q32.25-25.3 31.35-23.85L31.35-23.85Q30.6-22.5 29.68-22 28.75-21.5 28.75-22.1L28.75-22.1Q28.75-22.15 29.3-22.7L29.3-22.7Q30.95-24.25 30.95-25.25L30.95-25.25Q30.95-27.4 26.7-27.4L26.7-27.4Q24.9-27.4 21.95-26.73 19-26.05 16.25-24.55L16.25-24.55Q13.05-22.8 13.05-21.5L13.05-21.5Q13.05-20.45 15-19.5L15-19.5Q16.05-19 19.18-17.82 22.3-16.65 24.23-15.78 26.15-14.9 27.88-13.3 29.6-11.7 29.6-9.75 29.6-7.8 27.3-5.5L27.3-5.5Q23.8-2.15 18.2 0.08 12.6 2.3 8.6 2.3L8.6 2.3Q0.7 2.3 0.7-2.15 0.7-6.6 5.55-9.7L5.55-9.7Q9.55-12.45 13.95-12.45L13.95-12.45Q15-12.45 14.9-12.1L14.9-12.1Q14.8-11.75 13.4-11.73 12-11.7 9.8-10.78 7.6-9.85 5.7-8.1L5.7-8.1Q3.2-5.85 3.2-3.6L3.2-3.6Q3.2-2.2 4.55-1.1 5.9 0 9.7 0 13.5 0 17.2-1.2L17.2-1.2Q25.2-3.85 27.2-7L27.2-7Q28-8.15 28-8.95L28-8.95Q28-11.25 25.2-12.55L25.2-12.55Q21.95-14.05 16.1-16L16.1-16Q13.85-16.75 12.28-17.98 10.7-19.2 10.7-20.93 10.7-22.65 12.58-24.33 14.45-26 17.1-27L17.1-27Q22.8-29.15 26.75-29.15L26.75-29.15Q32.25-29.15 32.25-26.4Z" opacity="1" transform="matrix(1,0,0,1,0,0)" fill="#0c1d36" class="undefined-text-0" data-fill-palette-color="quaternary" id="text-0"></path></svg></g></svg></g></svg></g></svg></g><g></g></svg></g><defs></defs></svg><rect width="306.8945075145734" height="247.2" fill="none" stroke="none" visibility="hidden"></rect></g></svg></g></svg>